<svg xmlns="http://www.w3.org/2000/svg" xmlns:xlink="http://www.w3.org/1999/xlink" width="20.38" height="20.38" viewBox="0 0 20.38 20.38">
  <defs>
    <style>
      .cls-1 {
        fill: #fff;
        fill-opacity: 0.32;
        fill-rule: evenodd;
        filter: url(#filter);
      }
    </style>
    <filter id="filter" x="1282.81" y="2140.81" width="20.38" height="20.38" filterUnits="userSpaceOnUse">
      <feFlood result="flood" flood-color="#373a4a"/>
      <feComposite result="composite" operator="in" in2="SourceGraphic"/>
      <feBlend result="blend" in2="SourceGraphic"/>
    </filter>
  </defs>
  <path id="pinterest-1" class="cls-1" d="M1293,2140.8a10.2,10.2,0,0,0-3.72,19.7,9.625,9.625,0,0,1,.04-2.93c0.18-.79,1.19-5.07,1.19-5.07a3.719,3.719,0,0,1-.3-1.51c0-1.42.82-2.48,1.84-2.48a1.288,1.288,0,0,1,1.3,1.44,20.388,20.388,0,0,1-.85,3.39,1.485,1.485,0,0,0,1.51,1.85c1.81,0,3.21-1.91,3.21-4.67a4.025,4.025,0,0,0-4.26-4.15,4.409,4.409,0,0,0-4.61,4.42,3.974,3.974,0,0,0,.76,2.33,0.3,0.3,0,0,1,.07.29c-0.08.32-.25,1.02-0.28,1.16-0.05.19-.15,0.23-0.34,0.14-1.28-.6-2.07-2.46-2.07-3.96,0-3.21,2.33-6.17,6.74-6.17a5.983,5.983,0,0,1,6.28,5.89c0,3.52-2.21,6.35-5.29,6.35a2.758,2.758,0,0,1-2.34-1.17s-0.51,1.94-.63,2.42a11.247,11.247,0,0,1-1.27,2.68,10.359,10.359,0,0,0,3.02.45A10.2,10.2,0,1,0,1293,2140.8Z" transform="translate(-1282.81 -2140.81)"/>
</svg>
