<svg xmlns="http://www.w3.org/2000/svg" xmlns:xlink="http://www.w3.org/1999/xlink" width="34" height="26" viewBox="0 0 34 26">
  <defs>
    <style>
      .cls-1 {
        fill: #fff;
        fill-rule: evenodd;
        filter: url(#filter);
      }
    </style>
    <filter id="filter" x="386" y="1889" width="58" height="59" filterUnits="userSpaceOnUse">
      <feOffset result="offset" dy="15" in="SourceAlpha"/>
      <feGaussianBlur result="blur" stdDeviation="2.828"/>
      <feFlood result="flood" flood-opacity="0.14"/>
      <feComposite result="composite" operator="in" in2="blur"/>
      <feOffset result="offset-2" in="SourceAlpha"/>
      <feGaussianBlur result="blur-2" stdDeviation="2"/>
      <feFlood result="flood-2" flood-color="#bb331c"/>
      <feComposite result="composite-2" operator="in" in2="blur-2"/>
      <feBlend result="blend" in2="composite"/>
      <feGaussianBlur result="blur-3" stdDeviation="4.333" in="SourceAlpha"/>
      <feComposite result="composite-3"/>
      <feComposite result="composite-4"/>
      <feComposite result="composite-5"/>
      <feFlood result="flood-3" flood-color="#ff0032" flood-opacity="0.49"/>
      <feComposite result="composite-6" operator="in" in2="composite-5"/>
      <feBlend result="blend-2" in2="blend"/>
      <feBlend result="blend-3" in="SourceGraphic"/>
      <feGaussianBlur result="blur-4" stdDeviation="2" in="SourceAlpha"/>
      <feFlood result="flood-4" flood-color="#eb4175" flood-opacity="0.8"/>
      <feComposite result="composite-7" operator="out" in2="blur-4"/>
      <feOffset result="offset-3"/>
      <feComposite result="composite-8" operator="in" in2="SourceAlpha"/>
      <feBlend result="blend-4" mode="overlay" in2="blend-3"/>
    </filter>
  </defs>
  <path id="quote" class="cls-1"  d="M400.712,1917.21c0,4.8,3.1,7.53,6.568,7.53a5.893,5.893,0,0,0,5.83-5.83,5.007,5.007,0,0,0-5.018-5.31,3.59,3.59,0,0,0-1.476.22,12.839,12.839,0,0,1,5.756-7.01l-4.059-3.25A16.778,16.778,0,0,0,400.712,1917.21Zm15.054,0c0,4.8,3.026,7.53,6.5,7.53a5.844,5.844,0,0,0,5.83-5.83,4.993,4.993,0,0,0-4.945-5.31,3.6,3.6,0,0,0-1.476.22c0.591-2.66,3.395-5.76,5.756-7.01l-4.132-3.25A16.7,16.7,0,0,0,415.766,1917.21Z" transform="translate(-400 -1903)"/>
</svg>
