<svg xmlns="http://www.w3.org/2000/svg" xmlns:xlink="http://www.w3.org/1999/xlink" width="24" height="19.5" viewBox="0 0 24 19.5">
  <defs>
    <style>
      .cls-1 {
        fill: #fff;
        fill-opacity: 0.32;
        fill-rule: evenodd;
        filter: url(#filter);
      }
    </style>
    <filter id="filter" x="1240" y="2141.25" width="24" height="19.5" filterUnits="userSpaceOnUse">
      <feFlood result="flood" flood-color="#373a4a"/>
      <feComposite result="composite" operator="in" in2="SourceGraphic"/>
      <feBlend result="blend" in2="SourceGraphic"/>
    </filter>
  </defs>
  <path id="twitter-1" class="cls-1" d="M1264,2143.56a9.872,9.872,0,0,1-2.83.77,4.935,4.935,0,0,0,2.17-2.72,9.952,9.952,0,0,1-3.13,1.19,4.929,4.929,0,0,0-8.39,4.49,13.961,13.961,0,0,1-10.15-5.14,4.926,4.926,0,0,0,1.52,6.57,4.86,4.86,0,0,1-2.23-.61,4.945,4.945,0,0,0,3.95,4.89,4.862,4.862,0,0,1-2.22.08,4.923,4.923,0,0,0,4.6,3.42,9.907,9.907,0,0,1-7.29,2.04,14,14,0,0,0,21.54-12.43A10.276,10.276,0,0,0,1264,2143.56Z" transform="translate(-1240 -2141.25)"/>
</svg>
